# ProBuilder 4.5.2
# https://unity3d.com/unity/features/worldbuilding/probuilder
# 2023-11-29 PM 5:11:06

mtllib ./Cube.mtl
o Cube

g Cube
v 0.05186927 0.2796624 0.5000038
v 0.05186927 0.2796624 -0.5
v 0.04906929 0.2796624 0.5000038
v -0.1299489 -0.5 0.5000038
v -0.220858 -0.5 0.5000038
v -0.3117671 -0.5 0.5000038
v 0.0454545 0.2796624 0.5000038
v -0.5 0.3538966 -0.5
v 0.04265451 0.2796624 0.5000038
v -0.1363636 -0.5 0.5
v -0.2272727 -0.5 0.5
v -0.3181818 -0.5 0.5
v -0.489957 0.3538966 0.5000038
v -0.5 0.3538966 0.5000038
v -0.489957 0.3538966 -0.5
v -0.3181818 -0.5 -0.5
v -0.2272727 -0.5 -0.5
v -0.1363636 -0.5 -0.5
v 0.04265463 0.2796624 -0.5
v 0.04545462 0.2796624 -0.5
v -0.3117671 -0.5 -0.5
v -0.220858 -0.5 -0.5
v -0.1299489 -0.5 -0.5
v 0.04906929 0.2796624 -0.5
v -0.5 0.8982015 0.5000038
v -0.5 0.8982015 -0.5
v -0.4090909 0.8982015 0.5000038
v -0.3181818 0.1206086 0.5000038
v -0.2272727 0.1206086 0.5000038
v -0.1363636 0.1206086 0.5000038
v -0.04545462 0.9072127 0.5000038
v 0.0454545 0.9072127 0.5000038
v 0.05186927 0.9072127 -0.5
v -0.5001053 0.8998098 0.5000038
v -0.5039722 0.7647109 0.5000038
v -0.03576255 0.7710812 0.5000038
v -0.03903985 0.9072127 0.5000038
v 0.05186927 0.9072127 0.5000038
v -0.4090909 0.8982015 -0.5
v -0.3181818 0.1206086 -0.5
v -0.2272727 0.1206086 -0.5
v -0.1363636 0.1206086 -0.5
v -0.0454545 0.9072127 -0.5
v 0.04545462 0.9072127 -0.5
v -0.5001053 0.8998098 -0.5
v -0.5039722 0.7647109 -0.5
v -0.03576255 0.7710812 -0.5
v -0.03903985 0.9072127 -0.5
v 0.05186927 0.3705714 0.5000038
v 0.05186927 0.4614806 0.5000038
v 0.05186927 0.5523896 0.5000038
v 0.05186927 0.270849 0.5000038
v 0.05186927 0.3617582 0.5000038
v 0.05186927 0.4526672 0.5000038
v 0.05186927 0.5435765 0.5000038
v 0.05186927 0.6344855 0.5000038
v 0.05186927 0.7253945 0.5000038
v 0.05186927 0.8163035 0.5000038
v 0.05186927 0.3705716 -0.5
v 0.05186927 0.4614806 -0.5
v 0.05186927 0.5523896 -0.5
v 0.05186927 0.270849 -0.5
v 0.05186927 0.3617582 -0.5
v 0.05186927 0.4526672 -0.5
v 0.05186927 0.5435765 -0.5
v 0.05186927 0.6344855 -0.5
v 0.05186927 0.7253945 -0.5
v 0.05186927 0.8163037 -0.5
v -0.5 0.4448056 0.5000038
v -0.5 0.5357149 0.5000038
v -0.5 0.6266239 0.5000038
v -0.5 0.7175329 0.5000038
v -0.5 0.8084421 0.5000038
v -0.5 0.8993511 0.5000038
v -0.5 0.5345652 0.5000038
v -0.5 0.6254742 0.5000038
v -0.5 0.7163832 0.5000038
v -0.5 0.8072922 0.5000038
v -0.5 0.8072922 -0.5
v -0.5 0.7163832 -0.5
v -0.5 0.6254742 -0.5
v -0.5 0.5345652 -0.5
v -0.5 0.8993511 -0.5
v -0.5 0.8084421 -0.5
v -0.5 0.7175329 -0.5
v -0.5 0.6266239 -0.5
v -0.5 0.5357149 -0.5
v -0.5 0.4448056 -0.5

vt 1 1
vt 1 0
vt 0.9090909 0
vt 0.8181818 0
vt 0.7272727 0
vt 0.6363636 0
vt 0.5454545 0
vt 0 0
vt 0.4545454 0
vt 0.3636364 0
vt 0.2727273 0
vt 0.1818182 0
vt 0.09090906 0
vt 0 1
vt 0.09090909 1
vt 0.1818182 1
vt 0.2727273 1
vt 0.3636364 1
vt 0.4545455 1
vt 0.5454546 1
vt 0.6363636 1
vt 0.7272727 1
vt 0.8181818 1
vt 0.9090909 1
vt 0 0.09090906
vt 0 0.1818182
vt 0 0.2727273
vt 0 0.3636364
vt 0 0.4545454
vt 0 0.5454545
vt 0 0.6363636
vt 0 0.7272727
vt 0 0.8181818
vt 0 0.9090909
vt 1 0.09090909
vt 1 0.1818182
vt 1 0.2727273
vt 1 0.3636364
vt 1 0.4545455
vt 1 0.5454546
vt 1 0.6363636
vt 1 0.7272727
vt 1 0.8181818
vt 1 0.9090909

vn 0 -1 0
vn 0.6497588 -0.4825243 0
vn 0.3248794 -0.7412621 0
vn -0.6060796 -0.05564292 -3.612502E-08
vn -0.3030398 -0.5278215 -3.612502E-08
vn -0.6535735 -0.4648103 -1.947793E-08
vn -0.3267867 -0.7324052 -1.947793E-08
vn 0 1 0
vn 0.3310784 0.7053733 1.973373E-08
vn 0.6621568 0.4107467 1.973373E-08
vn -0.3311293 0.7049358 0
vn -0.6622585 0.4098716 -3.947353E-08
vn 0.004522703 0.333364 5.391462E-10
vn 0.3422423 -0.6761424 5.391462E-10
vn 0.661859 0.3142284 0
vn -0.3423064 0.6585824 0
vn -0.6664736 0.3172883 0
vn 0.009045406 -0.333272 5.391462E-10
vn 0.6709165 -0.3523767 0
vn 0.3241273 0.657068 0
vn -0.6710083 0.3172574 0
vn -0.3332368 0.6586441 0
vn 1 0 0
vn 0.3333333 0 0
vn -0.3333333 0 0
vn -1 0 0

usemtl Collider
f 38/2/8 33/1/8 48/24/22
f 27/13/9 26/14/8 25/8/8
f 27/13/9 39/15/10 26/14/8
f 28/12/10 39/15/10 27/13/9
f 28/12/10 40/16/9 39/15/10
f 29/11/8 40/16/9 28/12/10
f 29/11/8 41/17/8 40/16/9
f 30/10/11 41/17/8 29/11/8
f 30/10/11 42/18/12 41/17/8
f 31/9/12 42/18/12 30/10/11
f 31/9/12 43/19/11 42/18/12
f 32/7/13 43/19/11 31/9/12
f 32/7/13 44/20/18 43/19/11
f 34/6/14 44/20/18 32/7/13
f 34/6/14 45/21/19 44/20/18
f 35/5/15 45/21/19 34/6/14
f 35/5/15 46/22/20 45/21/19
f 36/4/16 46/22/20 35/5/15
f 36/4/16 47/23/21 46/22/20
f 37/3/17 47/23/21 36/4/16
f 37/3/17 48/24/22 47/23/21
f 38/2/8 48/24/22 37/3/17
f 24/24/3 2/2/1 1/1/1
f 3/3/2 24/24/3 1/1/1
f 24/24/3 3/3/2 23/23/2
f 3/3/2 4/4/3 23/23/2
f 22/22/1 23/23/2 4/4/3
f 5/5/1 22/22/1 4/4/3
f 22/22/1 5/5/1 21/21/5
f 5/5/1 6/6/4 21/21/5
f 20/20/4 21/21/5 6/6/4
f 7/7/5 20/20/4 6/6/4
f 7/7/5 19/19/3 20/20/4
f 9/9/2 19/19/3 7/7/5
f 19/19/3 9/9/2 18/18/2
f 9/9/2 10/10/3 18/18/2
f 17/17/1 18/18/2 10/10/3
f 11/11/1 17/17/1 10/10/3
f 17/17/1 11/11/1 16/16/7
f 11/11/1 12/12/6 16/16/7
f 15/15/6 16/16/7 12/12/6
f 13/13/7 15/15/6 12/12/6
f 15/15/6 13/13/7 8/8/1
f 13/13/7 14/14/1 8/8/1
f 49/25/23 1/8/23 2/2/23
f 49/25/23 2/2/23 59/35/23
f 50/26/23 49/25/23 59/35/23
f 50/26/23 59/35/23 60/36/23
f 51/27/24 50/26/23 60/36/23
f 51/27/24 60/36/23 61/37/25
f 52/28/25 51/27/24 61/37/25
f 52/28/25 61/37/25 62/38/24
f 53/29/23 52/28/25 62/38/24
f 53/29/23 62/38/24 63/39/23
f 54/30/23 53/29/23 63/39/23
f 54/30/23 63/39/23 64/40/23
f 55/31/23 54/30/23 64/40/23
f 55/31/23 64/40/23 65/41/23
f 56/32/23 55/31/23 65/41/23
f 56/32/23 65/41/23 66/42/23
f 57/33/23 56/32/23 66/42/23
f 57/33/23 66/42/23 67/43/23
f 58/34/23 57/33/23 67/43/23
f 58/34/23 67/43/23 68/44/23
f 38/14/23 58/34/23 68/44/23
f 38/14/23 68/44/23 33/1/23
f 88/25/26 8/8/26 14/2/26
f 88/25/26 14/2/26 69/35/26
f 87/26/26 88/25/26 69/35/26
f 87/26/26 69/35/26 70/36/26
f 86/27/26 87/26/26 70/36/26
f 86/27/26 70/36/26 71/37/26
f 85/28/26 86/27/26 71/37/26
f 85/28/26 71/37/26 72/38/26
f 84/29/26 85/28/26 72/38/26
f 84/29/26 72/38/26 73/39/26
f 83/30/25 84/29/26 73/39/26
f 83/30/25 73/39/26 74/40/24
f 82/31/24 83/30/25 74/40/24
f 82/31/24 74/40/24 75/41/25
f 81/32/26 82/31/24 75/41/25
f 81/32/26 75/41/25 76/42/26
f 80/33/26 81/32/26 76/42/26
f 80/33/26 76/42/26 77/43/26
f 79/34/26 80/33/26 77/43/26
f 79/34/26 77/43/26 78/44/26
f 26/14/26 79/34/26 78/44/26
f 26/14/26 78/44/26 25/1/26

