# ProBuilder 4.5.2
# https://unity3d.com/unity/features/worldbuilding/probuilder
# 2023-12-21 PM 1:26:42

mtllib ./Circle.mtl
o Circle

g Circle
v -208.7927 208.7927 1.908392
v -275.4552 275.4552 -20.81425
v -153.2365 358.1066 -20.80532
v -358.1067 153.2366 -20.80532
v -115.0491 262.6417 3.160625
v 0.004903 389.4808 -20.79741
v -262.6417 115.0491 3.160627
v -389.4808 -0.004898 -20.79741
v -156.0361 156.0361 15.3446
v 0.005455 280.8565 3.960625
v 153.2333 358.0915 -20.80178
v -280.8566 -0.005447 3.960619
v -358.0916 -153.2333 -20.80178
v -87.03701 168.9187 19.09851
v -168.9187 87.03702 19.09851
v 115.0573 262.638 3.160696
v 275.4411 275.4412 -20.80949
v -262.638 -115.0573 3.160688
v -275.4542 -275.4422 -20.81188
v -0.009329 175.1459 20.7522
v -175.1072 -0.004272 20.75718
v -208.8012 -208.778 1.909307
v -153.2366 -358.1066 -20.80532
v -168.939 -87.03647 19.09608
v 87.05254 168.9531 19.09345
v -115.0491 -262.6417 3.160625
v 0.004903 -389.4808 -20.79741
v -156.0989 -156.0442 15.33691
v 0.005453 -280.8566 3.960619
v 153.2334 -358.0916 -20.80178
v -87.03954 -168.9432 19.0954
v 115.0573 -262.638 3.160692
v 275.4422 -275.4542 -20.81188
v 0.012722 -175.1459 20.75219
v 208.778 -208.8011 1.909304
v 358.1067 -153.2366 -20.80532
v 87.05005 -168.9287 19.09661
v 262.6417 -115.0491 3.160625
v 389.4808 0.004913 -20.79741
v 156.0226 -156.0773 15.34157
v 168.9187 -87.03701 19.09851
v 280.8566 0.005463 3.960619
v 358.0916 153.2334 -20.80178
v 175.1071 0.004288 20.75718
v 262.638 115.0573 3.160696
v 168.939 87.03647 19.09608
v 208.7864 208.7864 1.910269
v 156.0853 156.0853 15.33395
v -152.679 356.7548 -27.03604
v -274.3947 274.3947 -27.03604
v -207.8482 207.8482 -4.350691
v -356.7549 152.679 -27.03604
v -114.5797 261.4589 -3.111599
v 0 388.0527 -27.03604
v -261.459 114.5797 -3.111597
v -388.0528 0 -27.03604
v 0 279.6179 -2.318363
v 152.679 356.7548 -27.03604
v -155.3771 155.3771 9.012825
v -279.6179 0 -2.318369
v -356.7549 -152.679 -27.03604
v -86.70296 168.1582 12.75265
v -168.1582 86.70296 12.75265
v 114.5797 261.4589 -3.111597
v 274.3947 274.3947 -27.03604
v -261.459 -114.5797 -3.111603
v -274.3947 -274.3947 -27.03605
v -174.311 0 14.40691
v -2E-06 174.3109 14.40691
v -207.8483 -207.8483 -4.350693
v -152.679 -356.7549 -27.03604
v -168.1582 -86.70296 12.75265
v 86.70296 168.1582 12.75264
v -114.5797 -261.4589 -3.111599
v 0 -388.0527 -27.03604
v -155.3771 -155.3771 9.012825
v -2E-06 -279.6179 -2.318369
v 152.679 -356.7549 -27.03604
v -86.70297 -168.1582 12.75265
v 114.5797 -261.4589 -3.111599
v 274.3947 -274.3947 -27.03605
v -5E-06 -174.3109 14.4069
v 207.8483 -207.8483 -4.350697
v 356.7549 -152.679 -27.03604
v 86.70296 -168.1582 12.75265
v 261.459 -114.5797 -3.111601
v 388.0528 0 -27.03604
v 155.3771 -155.3771 9.012821
v 168.1582 -86.70296 12.75265
v 279.6179 0 -2.318369
v 356.7549 152.679 -27.03604
v 174.3109 0 14.4069
v 261.459 114.5797 -3.111597
v 168.1582 86.70297 12.75264
v 207.8482 207.8482 -4.350691
v 155.3771 155.3771 9.012821

vt 0.114687 0.885265
vt 0.071706 0.928241
vt 0.148618 0.980255
vt 0.019709 0.851323
vt 0.173184 0.918827
vt 0.244973 0.999968
vt 0.081133 0.826769
vt 1.7E-05 0.754985
vt 0.148046 0.851908
vt 0.244934 0.930165
vt 0.341304 0.980271
vt 0.069802 0.75503
vt 0.019713 0.658675
vt 0.190929 0.859782
vt 0.140171 0.809027
vt 0.316686 0.918858
vt 0.418223 0.928327
vt 0.081107 0.683299
vt 0.071661 0.581776
vt 0.244911 0.863592
vt 0.136381 0.755046
vt 0.114615 0.624799
vt 0.148607 0.529781
vt 0.140136 0.701076
vt 0.298911 0.859814
vt 0.173157 0.591227
vt 0.244973 0.510093
vt 0.147964 0.65817
vt 0.244917 0.579898
vt 0.3413 0.529814
vt 0.190904 0.650268
vt 0.316663 0.591214
vt 0.418195 0.581781
vt 0.2449 0.646471
vt 0.375165 0.62473
vt 0.470173 0.658732
vt 0.29889 0.650261
vt 0.408729 0.683275
vt 0.489854 0.755086
vt 0.341777 0.658088
vt 0.349665 0.701019
vt 0.420057 0.755038
vt 0.470159 0.851407
vt 0.353458 0.755021
vt 0.408749 0.826792
vt 0.349698 0.809008
vt 0.375226 0.885332
vt 0.341851 0.851958
vt 0.152179 0.023682
vt 0.075561 0.075458
vt 0.118443 0.118381
vt 0.023689 0.152035
vt 0.176654 0.084998
vt 0.248154 0.004067
vt 0.085007 0.176568
vt 0.003983 0.248052
vt 0.248099 0.073723
vt 0.344103 0.023705
vt 0.151607 0.15157
vt 0.073681 0.248019
vt 0.023643 0.344055
vt 0.194291 0.143775
vt 0.14378 0.194247
vt 0.319539 0.085001
vt 0.420705 0.075447
vt 0.084947 0.319471
vt 0.075441 0.420641
vt 0.139996 0.24802
vt 0.248068 0.140027
vt 0.118319 0.37769
vt 0.152068 0.472421
vt 0.143732 0.301788
vt 0.301841 0.14379
vt 0.176554 0.411099
vt 0.248043 0.492055
vt 0.151522 0.344488
vt 0.248002 0.422398
vt 0.343996 0.472436
vt 0.194221 0.35232
vt 0.319441 0.411143
vt 0.420597 0.420699
vt 0.247995 0.356094
vt 0.377668 0.377798
vt 0.472438 0.344091
vt 0.301773 0.352358
vt 0.411103 0.31957
vt 0.492132 0.248064
vt 0.344475 0.344589
vt 0.352307 0.30189
vt 0.422426 0.248098
vt 0.472477 0.152053
vt 0.356094 0.248099
vt 0.411159 0.176626
vt 0.352353 0.194314
vt 0.377783 0.118373
vt 0.344554 0.151598
vt 0.072603 0.423473
vt 0.150523 0.476113
vt 0.248046 0.496051
vt 0.019952 0.345604
vt 0.345542 0.476127
vt -3.2E-05 0.248055
vt 0.423427 0.423538
vt 0.019997 0.150486
vt 0.476132 0.345639
vt 0.072727 0.072622
vt 0.496148 0.248061
vt 0.150633 0.019989
vt 0.476169 0.150505
vt 0.248157 7.1E-05
vt 0.423537 0.072613
vt 0.345649 0.020014

vn -0.1440634 0.1440635 0.9790258
vn -0.1656857 0.1656858 0.9721608
vn -0.08778659 0.2110522 0.9735248
vn -0.2110521 0.08778654 0.9735248
vn -0.072784 0.1811613 0.9807564
vn 0.0007030405 0.2231729 0.9747786
vn -0.1811613 0.07278401 0.9807564
vn -0.223173 -0.0007030181 0.9747786
vn -0.1187658 0.1187658 0.9857938
vn 0.0007352707 0.1904791 0.9816909
vn 0.08716885 0.2085964 0.9741094
vn -0.1904757 -0.0007373895 0.9816917
vn -0.2085967 -0.08716778 0.9741095
vn -0.05573694 0.1506606 0.987013
vn -0.150657 0.05573225 0.9870139
vn 0.07424438 0.1806888 0.9807341
vn 0.163474 0.1634741 0.9729093
vn -0.1806877 -0.07424068 0.9807345
vn -0.1655104 -0.1636477 0.9725357
vn 0.0004587532 0.1573857 0.9875371
vn -0.157377 -0.0004660402 0.9875385
vn -0.146126 -0.1413479 0.979116
vn -0.08778831 -0.2110498 0.9735252
vn -0.1558937 -0.0595272 0.9859785
vn 0.05954093 0.1558831 0.9859794
vn -0.07279066 -0.1811626 0.9807556
vn 0.0007029882 -0.223173 0.9747786
vn -0.1281681 -0.1159453 0.9849516
vn 0.000737546 -0.1904811 0.9816906
vn 0.08716781 -0.2085967 0.9741094
vn -0.05574734 -0.1506604 0.9870125
vn 0.07424441 -0.1806883 0.9807342
vn 0.1636477 -0.1655104 0.9725357
vn 0.0004720017 -0.1573808 0.9875379
vn 0.1413466 -0.1461222 0.9791167
vn 0.2110498 -0.08778831 0.9735252
vn 0.05954152 -0.1558816 0.9859796
vn 0.1811586 -0.07278878 0.9807565
vn 0.223173 0.0007029901 0.9747786
vn 0.1159454 -0.1281539 0.9849534
vn 0.1506537 -0.05574328 0.9870138
vn 0.1904757 0.0007373588 0.9816917
vn 0.2085962 0.08716885 0.9741094
vn 0.157377 0.0004660496 0.9875385
vn 0.180686 0.07424217 0.9807348
vn 0.155885 0.05953243 0.9859796
vn 0.1434091 0.1434062 0.9792183
vn 0.1253469 0.1253332 0.9841645
vn 0.08780026 -0.2110697 -0.9735197
vn 0.1657013 -0.1657014 -0.9721554
vn 0.1440729 -0.144073 -0.979023
vn 0.2110697 -0.08780029 -0.9735197
vn 0.07278417 -0.1811707 -0.9807547
vn -0.0007014652 -0.2231946 -0.9747736
vn 0.1811707 -0.07278416 -0.9807547
vn 0.2231946 0.0007014969 -0.9747736
vn -0.0007339299 -0.190482 -0.9816904
vn -0.0871828 -0.2086189 -0.9741033
vn 0.1187571 -0.1187572 -0.9857959
vn 0.190482 0.0007339527 -0.9816904
vn 0.2086189 0.08718283 -0.9741033
vn 0.05571431 -0.1506506 -0.9870158
vn 0.1506505 -0.0557143 -0.9870159
vn -0.07424145 -0.1806911 -0.9807339
vn -0.163494 -0.1634941 -0.9729025
vn 0.1806911 0.07424146 -0.9807339
vn 0.1655285 0.1636673 -0.9725294
vn 0.1573627 0.0004643202 -0.9875408
vn -0.000464337 -0.1573627 -0.9875408
vn 0.1461243 0.141356 -0.9791149
vn 0.08780027 0.2110697 -0.9735197
vn 0.1558703 0.05952187 -0.9859826
vn -0.05952189 -0.1558703 -0.9859826
vn 0.07278416 0.1811707 -0.9807547
vn -0.0007014559 0.2231947 -0.9747736
vn 0.1281333 0.1159404 -0.9849567
vn -0.0007339322 0.190482 -0.9816904
vn -0.08718283 0.2086189 -0.9741033
vn 0.05571429 0.1506506 -0.9870159
vn -0.07424146 0.1806911 -0.9807339
vn -0.1636673 0.1655286 -0.9725294
vn -0.0004643566 0.1573627 -0.9875408
vn -0.141356 0.1461243 -0.9791149
vn -0.2110697 0.08780028 -0.9735197
vn -0.05952185 0.1558703 -0.9859826
vn -0.1811707 0.07278415 -0.9807547
vn -0.2231947 -0.0007014633 -0.9747736
vn -0.1159404 0.1281332 -0.9849567
vn -0.1506505 0.05571429 -0.9870159
vn -0.190482 -0.000733921 -0.9816904
vn -0.2086189 -0.08718281 -0.9741033
vn -0.1573627 -0.0004643417 -0.9875408
vn -0.180691 -0.07424145 -0.9807339
vn -0.1558701 -0.05952189 -0.9859826
vn -0.1434087 -0.1434088 -0.979218
vn -0.1253254 -0.1253254 -0.9841682
vn -0.6877968 -0.6879563 -0.2316283
vn -0.6880262 -0.6879562 -0.2309462
vn -0.3775062 -0.8970852 -0.2296242
vn -0.3778399 -0.8976234 -0.2269568
vn -0.8974231 -0.3777128 -0.2279577
vn 5.646533E-05 -0.9744401 -0.2246475
vn -0.8980232 -0.3778919 -0.2252822
vn -7.827226E-05 -0.974597 -0.2239657
vn -0.9745979 7.824186E-05 -0.2239622
vn 0.377892 -0.8980229 -0.2252833
vn -0.9744409 -5.658689E-05 -0.224644
vn 0.377713 -0.8974233 -0.2279567
vn -0.8976235 0.37784 -0.2269556
vn 0.6879566 -0.6880266 -0.230944
vn -0.8970035 0.3774282 -0.2300707
vn 0.6879568 -0.6877973 -0.2316258
vn -0.6877908 0.6875908 -0.2327291
vn 0.8970853 -0.3775063 -0.2296235
vn 0.8976236 -0.3778399 -0.2269555
vn -0.3775423 0.896954 -0.2300768
vn 0.9744409 5.645773E-05 -0.2246441
vn -0.3777096 0.8976768 -0.2269625
vn 0.9745979 -7.839382E-05 -0.2239622
vn 0.0001247238 0.9744388 -0.2246529
vn 0.8980076 0.3779284 -0.225283
vn 4.663397E-05 0.974598 -0.2239614
vn 0.8975045 0.3777911 -0.2275072
vn 0.3780421 0.8979614 -0.2252763
vn 0.6881764 0.6881776 -0.2298368
vn 0.3777294 0.8975329 -0.2274979

usemtl Round_ShieldMat
f 5/5/5 3/3/3 2/2/2 1/1/1
f 7/7/7 1/1/1 2/2/2 4/4/4
f 10/10/10 6/6/6 3/3/3 5/5/5
f 12/12/12 7/7/7 4/4/4 8/8/8
f 14/14/14 5/5/5 1/1/1 9/9/9
f 15/15/15 9/9/9 1/1/1 7/7/7
f 16/16/16 11/11/11 6/6/6 10/10/10
f 18/18/18 12/12/12 8/8/8 13/13/13
f 20/20/20 10/10/10 5/5/5 14/14/14
f 21/21/21 15/15/15 7/7/7 12/12/12
f 47/47/47 17/17/17 11/11/11 16/16/16
f 22/22/22 18/18/18 13/13/13 19/19/19
f 25/25/25 16/16/16 10/10/10 20/20/20
f 24/24/24 21/21/21 12/12/12 18/18/18
f 26/26/26 22/22/22 19/19/19 23/23/23
f 28/28/28 24/24/24 18/18/18 22/22/22
f 29/29/29 26/26/26 23/23/23 27/27/27
f 31/31/31 28/28/28 22/22/22 26/26/26
f 32/32/32 29/29/29 27/27/27 30/30/30
f 34/34/34 31/31/31 26/26/26 29/29/29
f 35/35/35 32/32/32 30/30/30 33/33/33
f 37/37/37 34/34/34 29/29/29 32/32/32
f 38/38/38 35/35/35 33/33/33 36/36/36
f 40/40/40 37/37/37 32/32/32 35/35/35
f 42/42/42 38/38/38 36/36/36 39/39/39
f 41/41/41 40/40/40 35/35/35 38/38/38
f 44/44/44 41/41/41 38/38/38 42/42/42
f 45/45/45 42/42/42 39/39/39 43/43/43
f 46/46/46 44/44/44 42/42/42 45/45/45
f 47/47/47 45/45/45 43/43/43 17/17/17
f 48/48/48 46/46/46 45/45/45 47/47/47
f 48/48/48 47/47/47 16/16/16 25/25/25
f 53/53/53 51/51/51 50/50/50 49/49/49
f 55/55/55 52/52/52 50/50/50 51/51/51
f 57/57/57 53/53/53 49/49/49 54/54/54
f 60/60/60 56/56/56 52/52/52 55/55/55
f 64/64/64 57/57/57 54/54/54 58/58/58
f 62/62/62 59/59/59 51/51/51 53/53/53
f 63/63/63 55/55/55 51/51/51 59/59/59
f 66/66/66 61/61/61 56/56/56 60/60/60
f 69/69/69 62/62/62 53/53/53 57/57/57
f 68/68/68 60/60/60 55/55/55 63/63/63
f 95/95/95 64/64/64 58/58/58 65/65/65
f 70/70/70 67/67/67 61/61/61 66/66/66
f 72/72/72 66/66/66 60/60/60 68/68/68
f 73/73/73 69/69/69 57/57/57 64/64/64
f 74/74/74 71/71/71 67/67/67 70/70/70
f 76/76/76 70/70/70 66/66/66 72/72/72
f 77/77/77 75/75/75 71/71/71 74/74/74
f 79/79/79 74/74/74 70/70/70 76/76/76
f 80/80/80 78/78/78 75/75/75 77/77/77
f 82/82/82 77/77/77 74/74/74 79/79/79
f 83/83/83 81/81/81 78/78/78 80/80/80
f 85/85/85 80/80/80 77/77/77 82/82/82
f 86/86/86 84/84/84 81/81/81 83/83/83
f 88/88/88 83/83/83 80/80/80 85/85/85
f 90/90/90 87/87/87 84/84/84 86/86/86
f 89/89/89 86/86/86 83/83/83 88/88/88
f 92/92/92 90/90/90 86/86/86 89/89/89
f 93/93/93 91/91/91 87/87/87 90/90/90
f 94/94/94 93/93/93 90/90/90 92/92/92
f 95/95/95 65/65/65 91/91/91 93/93/93
f 96/96/96 95/95/95 93/93/93 94/94/94
f 96/96/96 73/73/73 64/64/64 95/95/95
f 71/71/100 23/98/99 19/97/98 67/67/97
f 13/100/103 61/61/101 67/67/97 19/97/98
f 75/75/104 27/99/102 23/98/99 71/71/100
f 8/102/107 56/56/105 61/61/101 13/100/103
f 78/78/108 30/101/106 27/99/102 75/75/104
f 4/104/111 52/52/109 56/56/105 8/102/107
f 81/81/112 33/103/110 30/101/106 78/78/108
f 2/106/113 50/50/113 52/52/109 4/104/111
f 84/84/115 36/105/114 33/103/110 81/81/112
f 3/108/118 49/49/116 50/50/113 2/106/113
f 87/87/119 39/107/117 36/105/114 84/84/115
f 6/110/122 54/54/120 49/49/116 3/108/118
f 91/91/123 43/109/121 39/107/117 87/87/119
f 11/112/126 58/58/124 54/54/120 6/110/122
f 65/65/125 17/111/125 43/109/121 91/91/123
f 17/111/125 65/65/125 58/58/124 11/112/126

